<?xml version="1.0" encoding="UTF-8"?>
<svg id="Layer_1" xmlns="http://www.w3.org/2000/svg" version="1.1" viewBox="0 0 100 125">
  <!-- Generator: Adobe Illustrator 29.8.4, SVG Export Plug-In . SVG Version: 2.1.1 Build 6)  -->
  <path fill="#FDB923" d="M50,54.56c9.94,0,19.44-1.44,27.67-4.06l-27.67-19.29h50c0-12.65-22.9-23.34-50-23.34S0,18.56,0,31.21s22.9,23.35,50,23.35Z"/>
  <path fill="#FDB923" d="M80.14,54.69c-8.67,2.98-18.76,4.58-29.28,4.58C26.56,59.27,6.48,52.24,0,41.59v24.85C0,80.62,22.77,92.12,50.86,92.12c10.91,0,20.99-1.75,29.28-4.7v-32.73Z"/>
  <polygon fill="#FDB923" points="84.85 68.56 100 68.56 100 35.92 64.99 35.92 82.83 48.35 84.85 49.76 84.85 52.22 84.85 68.56"/>
</svg>